<svg xmlns="http://www.w3.org/2000/svg" data-name="Layer 1" viewBox="0 0 64 80" x="0px" y="0px"><path d="M33.94,15.1,27.09,8.25a2.87,2.87,0,0,0-2-.84H7a5.77,5.77,0,0,0-5.78,5.78V15.1Z"/><path d="M36.85,38.67l-3.61,3.61V29.35a1.28,1.28,0,0,0-2.56,0V42.21l-3.53-3.54a1.28,1.28,0,0,0-1.81,1.81l5.71,5.71a1.33,1.33,0,0,0,1.9,0l5.71-5.71a1.28,1.28,0,0,0-1.81-1.81Z"/><path d="M57,18.07l-55.86.07V50.81A5.78,5.78,0,0,0,7,56.59H57a5.78,5.78,0,0,0,5.78-5.78v-27A5.78,5.78,0,0,0,57,18.07ZM43.87,42.46a13.05,13.05,0,0,1-2.76,4.19A12.83,12.83,0,0,1,37,49.48a12.6,12.6,0,0,1-7.41.81A12.3,12.3,0,0,1,27,49.48a12.94,12.94,0,0,1-4.09-2.83,13.22,13.22,0,0,1-2.76-4.19,13.53,13.53,0,0,1,0-10.26A13.22,13.22,0,0,1,22.89,28,12.78,12.78,0,0,1,27,25.18a12.54,12.54,0,0,1,5-1,12.1,12.1,0,0,1,1.21.06,12.3,12.3,0,0,1,3.81,1A12.67,12.67,0,0,1,41.11,28a13.05,13.05,0,0,1,2.76,4.19,13.53,13.53,0,0,1,0,10.26Z"/></svg>