<svg xmlns="http://www.w3.org/2000/svg" xmlns:xlink="http://www.w3.org/1999/xlink" xml:space="preserve" version="1.1" style="shape-rendering:geometricPrecision;text-rendering:geometricPrecision;image-rendering:optimizeQuality;" viewBox="0 0 1.709 2.13625" x="0px" y="0px" fill-rule="evenodd" clip-rule="evenodd"><defs><style type="text/css">
   
    .fil0 {fill:black;fill-rule:nonzero}
   
  </style></defs><g><path class="fil0" d="M0 1.229c0,-0.03 0.024,-0.054 0.053,-0.054 0.03,0 0.054,0.024 0.054,0.054l0 0.298 0.4 -0.4c0.021,-0.021 0.054,-0.021 0.075,0 0.021,0.021 0.021,0.055 0,0.076l-0.4 0.399 0.299 0c0.029,0 0.053,0.024 0.053,0.054 0,0.029 -0.024,0.053 -0.053,0.053l-0.428 0c-0.029,0 -0.053,-0.024 -0.053,-0.053l0 -0.427zm1.602 -1.047l-0.399 0.4c-0.021,0.021 -0.055,0.021 -0.076,0 -0.021,-0.021 -0.021,-0.054 0,-0.075l0.4 -0.4 -0.298 0c-0.03,0 -0.054,-0.024 -0.054,-0.054 0,-0.029 0.024,-0.053 0.054,-0.053l0.427 0c0.029,0 0.053,0.024 0.053,0.053l0 0.428c0,0.029 -0.024,0.053 -0.053,0.053 -0.03,0 -0.054,-0.024 -0.054,-0.053l0 -0.299zm-1.42 -0.075l0.4 0.4c0.021,0.021 0.021,0.054 0,0.075 -0.021,0.021 -0.054,0.021 -0.075,0l-0.4 -0.4 0 0.299c0,0.029 -0.024,0.053 -0.054,0.053 -0.029,0 -0.053,-0.024 -0.053,-0.053l0 -0.428c0,-0.011 0.004,-0.021 0.01,-0.03l0 0 0 -0.001 0.001 -0.001 0 0 0.002 -0.002 0 -0.001 0.001 0 0 0c0.001,-0.002 0.002,-0.003 0.004,-0.004l0 0 0 -0.001 0.001 0 0.002 -0.002 0 0 0.001 -0.001 0.001 0 0 0c0.009,-0.006 0.019,-0.01 0.03,-0.01l0.428 0c0.029,0 0.053,0.024 0.053,0.053 0,0.03 -0.024,0.054 -0.053,0.054l-0.299 0zm1.345 1.495l-0.4 -0.399c-0.021,-0.021 -0.021,-0.055 0,-0.076 0.021,-0.021 0.055,-0.021 0.076,0l0.399 0.4 0 -0.298c0,-0.03 0.024,-0.054 0.054,-0.054 0.029,0 0.053,0.024 0.053,0.054l0 0.427c0,0.029 -0.024,0.053 -0.053,0.053l-0.427 0c-0.03,0 -0.054,-0.024 -0.054,-0.053 0,-0.03 0.024,-0.054 0.054,-0.054l0.298 0z"/></g><text x="0" y="16.709" fill="#000000" font-size="5px" font-weight="bold" font-family="'Helvetica Neue', Helvetica, Arial-Unicode, Arial, Sans-serif">Created by Deemak Daksina</text><text x="0" y="21.709" fill="#000000" font-size="5px" font-weight="bold" font-family="'Helvetica Neue', Helvetica, Arial-Unicode, Arial, Sans-serif">from the Noun Project</text></svg>