<svg xmlns="http://www.w3.org/2000/svg" xmlns:xlink="http://www.w3.org/1999/xlink" viewBox="0 0 51 63.75" version="1.1" x="0px" y="0px"><title>attent-icon@1x</title><desc>Created with Sketch.</desc><g stroke="none" stroke-width="1" fill="none" fill-rule="evenodd"><g transform="translate(-820.000000, -2459.000000)" fill="#000000"><g transform="translate(275.000000, 1935.000000)"><g transform="translate(75.000000, 512.000000)"><g transform="translate(470.000000, 12.000000)"><path d="M45.864,10.2273 C49.059,14.4723 50.979,19.7283 50.979,25.4523 C50.979,39.4893 39.6,50.8653 25.563,50.8653 C11.532,50.8653 0.153,39.4893 0.153,25.4523 C0.153,11.4153 11.532,0.0393 25.563,0.0393 C30.885,0.0393 35.808,1.6893 39.888,4.4853 L39.855,4.5303 C40.422,4.9413 40.815,5.5803 40.815,6.3363 C40.815,7.5963 39.795,8.6163 38.538,8.6163 C37.956,8.6163 37.443,8.3853 37.041,8.0283 L37.026,8.0463 C33.726,5.8683 29.814,4.5393 25.563,4.5393 C14.016,4.5393 4.653,13.9053 4.653,25.4523 C4.653,37.0023 14.016,46.3653 25.563,46.3653 C37.116,46.3653 46.479,37.0023 46.479,25.4523 C46.479,20.7183 44.889,16.3683 42.231,12.8673 L42.258,12.8493 C42,12.4803 41.811,12.0543 41.811,11.5713 C41.811,10.3293 42.819,9.3213 44.061,9.3213 C44.802,9.3213 45.426,9.6993 45.834,10.2483 L45.864,10.2273 Z M27.8142,15.8202 L27.8142,28.3362 C27.8142,29.5782 26.8062,30.5862 25.5642,30.5862 C24.3222,30.5862 23.3142,29.5782 23.3142,28.3362 L23.3142,15.8202 C23.3142,14.5782 24.3222,13.5702 25.5642,13.5702 C26.8062,13.5702 27.8142,14.5782 27.8142,15.8202 Z M25.5642,32.8359 C26.8062,32.8359 27.8142,33.8409 27.8142,35.0859 C27.8142,36.3279 26.8062,37.3359 25.5642,37.3359 C24.3222,37.3359 23.3142,36.3279 23.3142,35.0859 C23.3142,33.8409 24.3222,32.8359 25.5642,32.8359 Z"/></g></g></g></g></g></svg>