<svg xmlns="http://www.w3.org/2000/svg" data-name="Layer 1" viewBox="0 0 64 80" x="0px" y="0px"><path d="M34,15l-6.9-6.9a2.87,2.87,0,0,0-2-.84H6.81A5.82,5.82,0,0,0,1,13.05V15Z"/><path d="M33,28.49a1.4,1.4,0,0,0-1.92,0L25.33,34.2A1.28,1.28,0,0,0,27.14,36l3.61-3.62v13a1.29,1.29,0,0,0,2.57,0V32.48L36.86,36a1.28,1.28,0,0,0,1.81-1.82Z"/><path d="M57.22,18,1,18V51a5.82,5.82,0,0,0,5.82,5.81H57.22A5.82,5.82,0,0,0,63,51V23.79A5.83,5.83,0,0,0,57.22,18ZM44,42.53a13.21,13.21,0,0,1-2.77,4.22,13,13,0,0,1-4.12,2.85,12.6,12.6,0,0,1-5.06,1,12.87,12.87,0,0,1-2.41-.23,12.68,12.68,0,0,1-2.65-.82,13,13,0,0,1-4.12-2.85,13.21,13.21,0,0,1-2.77-4.22,13.59,13.59,0,0,1,0-10.33A13.21,13.21,0,0,1,22.82,28a13,13,0,0,1,4.12-2.85,12.77,12.77,0,0,1,5.06-1c.41,0,.82,0,1.22.05a12.79,12.79,0,0,1,8,3.84A13.21,13.21,0,0,1,44,32.2a13.59,13.59,0,0,1,0,10.33Z"/></svg>